<?xml version="1.0" standalone="no"?>
<!DOCTYPE svg PUBLIC "-//W3C//DTD SVG 20010904//EN"
 "http://www.w3.org/TR/2001/REC-SVG-20010904/DTD/svg10.dtd">
<svg version="1.0" xmlns="http://www.w3.org/2000/svg"
 width="126.000000pt" height="126.000000pt" viewBox="0 0 126.000000 126.000000"
 preserveAspectRatio="xMidYMid meet">
<metadata>
Created by potrace 1.14, written by Peter Selinger 2001-2017
</metadata>
<g transform="translate(0.000000,126.000000) scale(0.100000,-0.100000)"
fill="#000000" stroke="none">
<path d="M116 1240 c-51 -26 -94 -75 -107 -122 -6 -24 -9 -211 -7 -511 l3
-473 25 -37 c14 -21 43 -50 64 -65 l39 -27 491 0 c474 0 492 1 530 20 21 12
53 40 70 64 l31 43 3 474 c2 309 -1 487 -8 513 -13 50 -77 114 -128 129 -28 9
-176 12 -503 12 -439 -1 -466 -2 -503 -20z"/>
</g>
</svg>
